<?xml version="1.0" encoding="utf-8"?>
<!-- Generator: Adobe Illustrator 24.0.0, SVG Export Plug-In . SVG Version: 6.00 Build 0)  -->
<svg version="1.1" id="Capa_1" xmlns="http://www.w3.org/2000/svg" xmlns:xlink="http://www.w3.org/1999/xlink" x="0px" y="0px"
	 viewBox="0 0 822.6 284" style="enable-background:new 0 0 822.6 284;" xml:space="preserve">
<style type="text/css">
	.st0{fill:#00ADEF;}
	.st1{fill:#231F20;}
	.st2{fill:#8BD2F4;}
	.st3{fill:#0081C6;}
</style>
<g>
	<g>
		<g>
			<g>
				<path class="st0" d="M489.2,227.4l-0.4-17c-0.1-2.7-0.2-5-0.4-7l3.5-0.7l0.3,4.5l0.2,0c1.5-3.7,4-6,7.1-6.6
					c3.5-0.8,5.7,1.1,6.5,4c1.3-3.8,3.9-6.2,7.4-7c2.7-0.6,5.9,0.5,6.9,4.9c0.2,1.1,0.4,2.7,0.5,4l0.4,14.2l-3.9,0.8l-0.4-13.8
					c0-0.9-0.1-2.1-0.3-3.1c-0.5-2.4-1.8-3.8-4.3-3.3c-2.9,0.6-5.5,4.7-5.4,10l0.3,12.3l-3.8,0.8l-0.3-14.1c0-1-0.1-2-0.3-2.9
					c-0.4-1.9-1.4-3.8-4.3-3.2c-2.9,0.6-5.7,5.2-5.5,10.3l0.4,12L489.2,227.4z"/>
				<path class="st0" d="M543.1,215.9c-0.3-1.4-0.5-3.6-0.8-6.1l-0.1,0c-1.5,5.3-4.3,7.7-7.6,8.4c-4.1,0.9-7.3-1.8-8.3-6.2
					c-1.7-8,2.4-17.8,12.5-19.9c2.2-0.5,4.7-0.6,6.4-0.4l0.2,12.5c0.1,4.2,0.6,8.3,1.3,10.9L543.1,215.9z M541.4,195.3
					c-0.6,0-1.5,0-2.8,0.3c-6,1.3-9.5,8.6-8.2,15c0.6,2.6,2,4.9,5,4.2c3.3-0.7,6.3-5.8,6.1-12.2L541.4,195.3z M543.2,181.8l-5,8.2
					l-3.1,0.7l3.3-7.8L543.2,181.8z"/>
				<path class="st0" d="M552.1,209.8c1.2,0.4,3.4,0.8,5.3,0.4c2.7-0.6,4-2.6,3.6-4.7c-0.4-1.8-1.4-2.8-4.1-3.6
					c-3-0.9-4.9-2.6-5.4-5c-0.9-4,1.9-7.9,6.8-8.9c2.1-0.4,4.1-0.3,5.1,0.1l-0.4,3.3c-0.9-0.3-2.5-0.5-4.2-0.2
					c-2.4,0.5-3.8,2.4-3.4,4.3c0.4,1.7,1.7,2.5,4,3.2c2.9,0.9,5.1,2.6,5.6,5.1c1,4.9-2.3,8.5-7.2,9.5c-2.5,0.5-4.9,0.2-6.1-0.4
					L552.1,209.8z"/>
				<path class="st0" d="M579.3,184.1l4.9,11.9c1.1,2.5,1.7,4.2,2.3,5.9l0.1,0c0.3-1.6,0.6-3.4,1.3-6.1l3.1-14.1l4.2-0.9l-4.9,19.4
					c-1.4,5.5-2.9,10.1-5.4,13.8c-2,3.2-4.6,4.9-5.9,5.5l-1.7-3.2c0.9-0.6,2.5-1.6,3.8-3.2c1.3-1.5,2.6-3.7,3.3-6.2
					c0.1-0.4,0.1-0.7-0.1-1.1l-9.3-20.7L579.3,184.1z"/>
				<path class="st0" d="M608.9,201.9l-0.4-17c-0.1-2.7-0.2-5-0.4-6.9l3.5-0.7l0.3,4.5l0.2-0.1c1.5-3.6,4-5.9,7.1-6.6
					c3.5-0.8,5.7,1.1,6.5,4c1.3-3.8,3.9-6.2,7.4-7c2.7-0.6,6,0.5,6.9,4.9c0.3,1.1,0.4,2.6,0.5,4l0.3,14.2l-3.9,0.8l-0.3-13.8
					c0-0.9-0.1-2.1-0.3-3.1c-0.5-2.4-1.8-3.8-4.3-3.2c-2.9,0.6-5.5,4.7-5.4,10l0.3,12.3l-3.8,0.8l-0.3-14.1c0-1-0.1-2-0.3-2.9
					c-0.4-2-1.4-3.8-4.3-3.2c-2.9,0.6-5.7,5.2-5.5,10.3l0.3,12L608.9,201.9z"/>
				<path class="st0" d="M663.9,188.8c-1.5,1.4-4.1,2.8-7.2,3.5c-6.1,1.3-9.7-2.3-10.8-7.4c-1.5-6.9,2-15.9,9.4-17.5
					c4.4-0.9,7.3,1.2,8,4.5c1.3,6.1-5.2,9.1-13.7,10.8c0,1,0.6,3.1,1.4,4.3c1.3,1.8,3.4,2.5,5.8,2c2.7-0.6,4.6-1.9,5.9-3
					L663.9,188.8z M659.6,172.7c-0.4-1.9-2.1-2.6-4.2-2.2c-3.8,0.8-5.8,5.1-6,8.9C655.6,178.2,660.3,176.4,659.6,172.7L659.6,172.7z
					"/>
				<path class="st0" d="M672.8,164.2l0.5,23.9c0.1,4-0.2,6.6-1.2,8.4c-1,1.8-2.9,3-4.8,3.4c-1,0.2-1.9,0.3-2.7,0.3l-0.2-3.2
					c0.5,0,1,0,1.9-0.2c2-0.4,3.3-2,3.2-7l-0.6-24.8L672.8,164.2z M670.8,160.5c-1.3,0.3-2.5-0.6-2.8-2c-0.3-1.5,0.6-2.9,2-3.2
					c1.5-0.3,2.6,0.6,2.9,2C673.2,158.8,672.3,160.1,670.8,160.5L670.8,160.5z"/>
				<path class="st0" d="M699.1,168.1c1.5,7.1-2,15.6-9.7,17.2c-5.8,1.2-9.9-2.4-11.1-7.6c-1.6-7.6,2.2-15.8,9.7-17.4
					C694.3,159,698.1,163.2,699.1,168.1 M682.5,176.7c0.8,3.8,3.4,6,6.8,5.3c4.7-1,7-7.8,5.8-13.1c-0.6-2.7-2.6-6.2-6.8-5.3
					C683.3,164.7,681.3,171.4,682.5,176.7"/>
				<path class="st0" d="M704.9,181.5l-0.4-15.5c-0.1-3.1-0.3-6.3-0.6-8.5l3.5-0.7c0.1,1.7,0.3,3.3,0.4,5.1l0.1,0
					c0.8-3.5,2.8-6.4,5.9-7.1c0.3-0.1,0.8-0.1,1.1-0.1l0.1,4.1c-0.2,0-0.6,0-1.1,0.1c-3.4,0.7-5.6,5.5-5.4,11.1l0.2,10.5
					L704.9,181.5z"/>
				<path class="st0" d="M744.1,173.1c-0.3-1.4-0.5-3.6-0.8-6.1l-0.1,0c-1.5,5.3-4.3,7.7-7.6,8.4c-4.1,0.9-7.3-1.8-8.3-6.2
					c-1.7-8,2.4-17.8,12.5-19.9c2.2-0.4,4.7-0.6,6.4-0.4l0.2,12.5c0.1,4.2,0.6,8.3,1.3,10.9L744.1,173.1z M742.4,152.4
					c-0.6,0-1.5,0-2.9,0.3c-6,1.3-9.5,8.6-8.2,15c0.6,2.6,2,4.9,5,4.3c3.3-0.7,6.3-5.8,6.1-12.2L742.4,152.4z"/>
				<path class="st0" d="M755,176.2c1.6,0.5,4,0.7,6.4,0.2c3.9-0.8,6.5-3.5,6.6-10l0-3.6l-0.2,0c-1.3,3.7-3.8,5.9-7,6.6
					c-4.6,1-7.8-2.4-8.7-6.5c-1.7-7.8,2.4-16.8,11.3-18.7c2.7-0.6,5.7-0.4,7.7,0l0.5,19.9c0.1,5-0.5,8.7-2.5,11.3
					c-1.9,2.5-4.8,3.7-7.5,4.3c-2.8,0.6-5.6,0.5-7.3-0.1L755,176.2z M767.4,147.6c-0.8-0.2-2.3-0.3-4,0.1c-5.8,1.2-8.4,8.1-7.3,13.8
					c0.5,2.5,2.1,5.3,5.6,4.6c3.4-0.7,6-5.7,5.8-10.4L767.4,147.6z"/>
				<path class="st0" d="M796.3,137.8l0.4,17c0.1,2.7,0.2,5,0.4,6.9l-3.6,0.8l-0.3-4.5l-0.1,0c-1.4,3.4-4.1,6-7.1,6.6
					c-3,0.6-6.4-0.1-7.5-5.4c-0.2-1.1-0.4-2.4-0.4-4l-0.3-13.6l4-0.8l0.3,13.4c0,1.3,0.1,2.5,0.3,3.5c0.5,2.4,1.9,3.8,4.6,3.2
					c2.9-0.6,5.8-4.7,5.7-10l-0.3-12.3L796.3,137.8z"/>
				<path class="st0" d="M818.9,157.2c-0.3-1.4-0.5-3.6-0.7-6.1l-0.1,0c-1.5,5.3-4.3,7.7-7.6,8.4c-4.1,0.9-7.3-1.8-8.3-6.2
					c-1.7-8,2.4-17.8,12.5-19.9c2.2-0.5,4.7-0.6,6.4-0.4l0.2,12.5c0.1,4.2,0.6,8.3,1.3,10.9L818.9,157.2z M817.2,136.5
					c-0.6,0-1.5,0-2.8,0.3c-6,1.3-9.5,8.6-8.2,15c0.6,2.6,2,4.9,5,4.2c3.3-0.7,6.3-5.8,6.1-12.2L817.2,136.5z"/>
				<path class="st1" d="M746.5,105.8c1.9,0,3.8,0.6,5.7,1.5c1.9,1,3.3,2.4,4.3,4.3c1,1.9,1.5,3.8,1.5,5.8c0,2-0.5,3.9-1.5,5.7
					c-1,1.8-2.4,3.3-4.3,4.3c-1.8,1-3.8,1.5-5.7,1.5c-2,0-3.9-0.5-5.8-1.5c-1.8-1-3.3-2.5-4.3-4.3c-1-1.8-1.5-3.8-1.5-5.7
					c0-2,0.5-3.9,1.6-5.8c1-1.9,2.5-3.3,4.3-4.3C742.6,106.3,744.5,105.8,746.5,105.8 M746.5,107.7c-1.6,0-3.2,0.4-4.8,1.2
					c-1.5,0.8-2.7,2-3.6,3.6c-0.9,1.5-1.3,3.2-1.3,4.8c0,1.6,0.4,3.2,1.3,4.8c0.9,1.6,2.1,2.7,3.6,3.6c1.5,0.9,3.1,1.3,4.8,1.3
					c1.6,0,3.3-0.4,4.8-1.3c1.5-0.8,2.7-2,3.5-3.6c0.8-1.5,1.3-3.1,1.3-4.8c0-1.7-0.4-3.3-1.3-4.8c-0.9-1.5-2.1-2.7-3.6-3.6
					C749.7,108.1,748,107.7,746.5,107.7 M741.4,123.8v-12.4h4.3c1.5,0,2.5,0.1,3.2,0.3c0.7,0.2,1.2,0.7,1.6,1.2
					c0.4,0.6,0.6,1.2,0.6,1.8c0,0.9-0.3,1.7-1,2.4c-0.6,0.7-1.5,1.1-2.6,1.1c0.4,0.2,0.8,0.4,1.1,0.7c0.5,0.5,1.1,1.3,1.8,2.5
					l1.5,2.4h-2.4l-1.1-2c-0.9-1.5-1.6-2.5-2.1-2.9c-0.4-0.3-0.9-0.5-1.6-0.5h-1.2v5.3H741.4z M743.4,116.8h2.4c1.2,0,2-0.2,2.4-0.5
					c0.4-0.3,0.6-0.8,0.6-1.4c0-0.4-0.1-0.7-0.3-1c-0.2-0.3-0.5-0.5-0.9-0.7c-0.4-0.1-1-0.2-2-0.2h-2.3V116.8z"/>
				<path class="st1" d="M642.3,122.6v-32c0-8.8-1.9-15.7-5.5-20.6c-3.7-4.9-8.2-8-13.6-9.5c-5.4-1.4-11.7-1.3-19,0.2
					c-9.8,2-20.1,6.8-31.1,14.2v25.3c7.8-7.7,15.5-12.6,22.7-14.7c5.3-1.6,10.6-2.4,13.3-1.1c4.1,2,3.9,5,4,8.8
					c-33,11.1-49.5,26.2-49.5,45.3c0,8.5,2.9,15,8.8,19.7c5.8,4.7,12.5,6.2,19.9,4.7c3.8-0.8,7.5-2.5,10.9-5.1
					c3.4-2.6,6.7-6.1,9.9-10.5c0.1,8.8,4.6,8.2,6.7,7.7c2.1-0.5,28.2-5.9,28.2-5.9C644.4,147.7,641.4,143.9,642.3,122.6
					 M613.1,121.3c0,4.2-0.8,7.8-2.5,10.9c-1.7,3.1-4.2,5-7.4,5.7c-2.8,0.6-5.2-0.1-7.1-1.9c-2-1.8-3.1-4.4-3.1-7.8
					c0-8.8,6.7-15.2,20.1-19.2V121.3z"/>
				<path class="st1" d="M332.7,143l-14.4,3v39c0,6,2.4,8.5,7.2,7.5c2.3-0.5,4.7-1.9,7.2-4.2v25.8c-5.9,3.3-11.9,5.6-18,6.9
					c-9.9,2.1-17.2,1.2-21.8-2.5c-4.6-3.7-7-10.6-7-20.4v-45.4l-11.6,2.4v-23.5c0,0,9.6-2,11.7-2.5c-1.3-22.8,4.9-24.7,11.7-26.2
					l19.2-3.6v23.4l15.8-3.3V143z"/>
				<path class="st1" d="M539.9,45.2c-3,0.9-14.3,5.4-14.7,25.4v104.1l17.3-3.6c3-0.8,14.3-5.4,14.6-25.4V41.5L539.9,45.2z"/>
				<path class="st1" d="M509.1,95.3c-6-8.3-14.1-11.4-24.2-9.3c-4.3,0.9-8.3,2.8-11.8,5.7c-3.1,2.5-5.9,5.8-8.5,9.9
					c0-4.5,0.6-8.9-4.3-8.3c-5.1,1.1-28.8,6.1-28.8,6.1s1.3,1.5,1.5,4.2c0.2,2.7-0.1,135.3-0.1,135.3l19.5-4.1c7-1.9,12.5-3,12.5-19
					l0-33.5c2.8,1.9,5.6,3.2,8.5,3.9c3,0.7,6.2,0.7,9.4,0c6.7-1.4,12.7-5,18-10.7c5.3-5.7,9.5-12.8,12.6-21.1c3-8.3,4.6-17.4,4.6-27
					C518.1,114.4,515.1,103.6,509.1,95.3 M482.3,153c-2.1,4.6-5.1,7.2-8.9,8c-1.7,0.4-3.3,0.3-4.8-0.3c-1.4-0.6-2.8-1.6-4-3.1v-23.1
					c0-5.7,0.8-10.1,2.5-13.3c1.6-3.2,4.1-5.1,7.3-5.8c3.3-0.7,6,0.7,8.1,4.1c2.1,3.4,3.1,8.8,3.1,16
					C485.5,142.6,484.5,148.5,482.3,153"/>
				<path class="st1" d="M712.4,128.7c-7.4,7.9-16.8,13.1-28.4,15.5c-9.8,2-20.2,1.4-31.3-1.8v-29c10.2,6.3,19,8.6,26.4,7.1
					c2.9-0.6,5.3-1.9,7.4-3.8c2.1-1.9,3-4.1,3-6.6c0-1.9-0.8-3.3-2.4-4.3c-1.6-0.9-4.6-1.8-9.1-2.6c-10.7-1.9-17.5-4.9-20.7-9.2
					c-3.1-4.2-4.7-8.7-4.7-13.5c0-8.9,3.7-16.8,11-23.7c7.3-6.9,16.2-11.5,26.6-13.7c9.1-1.9,18-1.7,26.9,0.6V72
					c-7.4-4.8-14.5-6.5-21.2-5.1c-3,0.7-5.3,1.6-6.9,3c-1.6,1.3-2.3,3-2.3,5.1c0,2.8,3.3,4.6,9.9,5.3c17.9,2.2,26.8,9.8,26.8,22.9
					C723.5,112.3,719.8,120.9,712.4,128.7"/>
				<path class="st1" d="M261.1,145.4c-8.4-6.9-19.2-9-32.3-6.2c-13.2,2.8-23.9,9.7-32,20.8c-8.1,11-12.2,24-12.2,39
					c0,14.4,3.9,25.4,11.6,33c7.7,7.6,18.6,10,32.4,7.1c13.9-2.9,24.9-9.9,32.9-21c8.1-11.1,12.2-24,12.2-38.8
					C273.7,163.6,269.5,152.3,261.1,145.4 M237.9,206c-2,4.6-5,7.3-9,8.1c-3.9,0.8-6.8-0.6-8.8-4.4c-2-3.8-2.9-9.9-2.9-18.3
					c0-8.5,1-15,3-19.7c2-4.7,5-7.4,8.9-8.2c3.9-0.9,6.9,0.7,8.8,4.5c2,3.8,2.9,10,2.9,18.5C240.8,195,239.8,201.4,237.9,206"/>
				<path class="st1" d="M413.8,113.9c-8.4-6.9-19.2-9-32.3-6.2c-13.3,2.8-23.9,9.7-32.1,20.7c-8.1,11-12.1,24-12.1,39
					c0,14.4,3.9,25.4,11.6,33c7.7,7.7,18.6,10,32.5,7.1c13.9-2.9,24.9-9.9,33-21c8.1-11.1,12.1-24,12.1-38.9
					C426.5,132.1,422.3,120.9,413.8,113.9 M390.6,174.6c-2,4.6-4.9,7.3-8.9,8.2c-3.9,0.8-6.9-0.6-8.8-4.5c-2-3.8-2.9-9.9-2.9-18.2
					c0-8.5,1-15.1,3-19.7c2-4.7,4.9-7.4,8.9-8.3c3.9-0.8,6.9,0.7,8.9,4.5c1.9,3.8,2.9,10,2.9,18.6
					C393.5,163.6,392.6,170,390.6,174.6"/>
				<path class="st1" d="M176.1,207.1c-1.7-7.7-6.5-14.9-13.4-16.9c11.8-6.3,21.4-17,21.4-37.2c0-10-4.5-20.5-10.9-24.6
					c-6.5-4.1-14-4.9-28.1-1.6c0,0-36.6,7.9-49.5,10.1c2.7,0.3,3.5,1.9,3.5,5c0.1,3.1,0,121.3,0,121.3l17.5-3.4
					c8.1-1.9,14.3-4.7,14.6-18.5l-0.1-37.1l2.9-0.6c4.2-0.8,10.2-1.2,13.1,8.1c1.5,4.9,3.6,19.6,5,29.2c1.5,9.5,7.8,9.9,12.7,9.1
					c4.9-0.9,23.5-4.7,25.2-5.1C181.4,242.8,178.4,217.9,176.1,207.1 M148.5,173.4c-2.5,3.3-6.1,5.4-10.8,6.3l-6.6,1.3l0.2-27.5
					l8-1.6c4.4-0.9,7.7-0.5,9.8,1.2c2.2,1.7,3.2,4.7,3.2,8.9C152.3,166.4,151,170.2,148.5,173.4"/>
				<path class="st2" d="M190.8,76.9c-0.1,0-0.1-0.1-0.1-0.1c-0.1-0.1-0.1-0.1-0.2-0.1c-5.5-5.2-14.3-5.4-14.3-5.4
					c-7.3-0.7-11.1-0.3-16.6,0.3C74.1,79.3,0,154.6,0,244.9c0,10.7,2.1,29.5,3.4,39.1l2.1-0.5C4.9,278,4,265.9,4,260.2
					c0-85.6,70.3-155.7,154.5-155.7c5.7,0,17.2,0.8,21.2,0.7h0.2c8.9-0.2,16-7.5,16-16.4c0-4.6-1.9-8.8-5-11.8
					C190.8,76.9,190.8,76.9,190.8,76.9"/>
				<path class="st0" d="M216.9,32.7c-5.2-1.8-15.1-2.6-21.5-2.6c-61.7,0-117.4,27.4-153.5,70.1c-12.8,15.2-23.5,32.7-32.8,57.1
					l3.4-0.8c9.7-19,20.5-33.2,33.3-45.5c31.7-30.5,75.5-49.5,123.8-48.6c8.1,0.1,17.1,1.2,24.9,2.2c6.8,0.9,13.1,2,16.3,2.2v0
					c0.4,0,0.7,0,1.1,0c9.6,0,17.5-7.8,17.5-17.4C229.4,41.5,224.1,34.8,216.9,32.7"/>
				<path class="st3" d="M124,32.2c10-2.8,25-4.8,33-6.3C163.2,25,168,19.6,168,13c0-6.9-5.3-12.5-12.1-12.9
					c-4.4-0.4-11,0.7-17.7,2.3c-10.9,2.7-20.7,6.4-32.5,12.9C71.3,36,57.1,59.9,47.9,76.8l3.3-0.2C71.3,55.4,94,40.6,124,32.2"/>
			</g>
		</g>
	</g>
</g>
</svg>
